<svg width="123" height="53" viewBox="0 0 123 53" fill="none" xmlns="http://www.w3.org/2000/svg">
<path fill-rule="evenodd" clip-rule="evenodd" d="M57.1198 17.9986C58.0968 17.9753 58.911 18.7418 58.9342 19.7173L58.9808 21.32C59.004 22.2955 58.2364 23.1085 57.2594 23.1317L47.3267 23.4336C46.3497 23.4569 45.5355 22.6904 45.5123 21.7149L45.0005 4.59672C44.9773 3.6212 45.7449 2.80827 46.7219 2.78504L49.3272 2.71536C50.3042 2.69213 51.1183 3.45861 51.1416 4.43414L51.537 18.0218C51.537 18.1147 51.6068 18.1612 51.6999 18.1612L57.1198 17.9986ZM69.123 13.1665C68.4251 11.889 67.2621 11.2154 65.5174 11.169C62.098 11.0993 60.0975 13.422 60.0044 17.2776C59.9114 21.1565 61.8188 23.4327 64.8894 23.5024C66.9597 23.5488 68.3786 22.4804 69.1463 20.5061C69.1695 20.4132 69.2858 20.3435 69.3789 20.3668L69.8674 20.4597C69.9837 20.4829 70.0535 20.599 70.0302 20.7152C69.9372 21.1332 69.7976 21.5281 69.658 21.8997C69.3789 22.7359 69.7743 23.2933 71.077 23.3166L73.1473 23.363C74.1243 23.363 74.9384 22.5965 74.9617 21.621L75.1245 14.0955C75.2641 7.9869 72.4959 5.33905 66.634 5.19969C65.5407 5.17646 63.9124 5.24614 62.0515 5.64099C60.9814 5.85003 60.5162 6.59329 60.4697 7.59204C60.4359 8.40194 60.4389 8.74607 60.4431 9.22099V9.22117V9.22132V9.22146V9.22159V9.22172V9.22184V9.22195C60.4447 9.40055 60.4464 9.59768 60.4464 9.84504C60.4464 10.7044 60.7023 11.2386 62.1678 10.4722C63.168 9.96117 64.2613 9.75213 65.4942 9.77536C67.5645 9.82181 68.9136 10.5883 69.9604 12.6555C70.0302 12.7716 69.9837 12.8877 69.8674 12.9574L69.3556 13.2361C69.2626 13.2826 69.1695 13.2594 69.123 13.1665ZM68.7508 16.9757C68.7043 18.6712 67.9367 19.5771 66.7271 19.5538C65.5174 19.5306 64.7963 18.5783 64.8196 16.906C64.8661 15.2104 65.6338 14.3046 66.8434 14.3278C68.053 14.351 68.7973 15.3033 68.7508 16.9757ZM85.9408 46.5425L87.4761 27.6592C87.5692 26.3817 88.3135 25.7546 89.5929 25.8707C89.5929 25.8707 91.4306 25.9404 92.4541 26.103C93.4776 26.2655 94.0359 26.8462 93.9661 27.8914L93.9429 28.1934C93.8731 29.1457 93.5242 29.7728 93.0124 30.6089C92.5937 31.329 92.2448 32.1884 91.9889 33.071C91.9656 33.1871 92.0354 33.3265 92.1517 33.3497L92.7333 33.4658C92.8263 33.4891 92.9426 33.4194 92.9659 33.3265C93.9196 30.7948 95.9434 29.3547 98.8278 29.587C102.736 29.9121 104.597 32.9781 104.131 38.5293L103.364 47.9594C103.271 49.0278 102.317 49.8407 101.247 49.7478L98.3858 49.5155C97.3158 49.4226 96.5016 48.4704 96.5947 47.4019L97.3623 37.9718C97.5019 36.2763 96.8738 35.2543 95.6177 35.1382C94.3616 35.022 93.5707 35.9511 93.4544 37.6467L92.6867 47.0767C92.5937 48.1452 91.64 48.9581 90.5699 48.8652L87.7087 48.6329C86.662 48.5633 85.8478 47.611 85.9408 46.5425ZM24.3208 29.4014C29.9734 28.9833 33.2068 32.2351 33.6952 38.8547C34.207 45.4743 31.4854 49.1674 25.8561 49.6087C20.2268 50.05 16.9701 46.775 16.4816 40.1554C15.9699 33.5358 18.6682 29.8195 24.3208 29.4014ZM25.4374 44.1272C26.74 44.0343 27.1587 42.6639 26.9028 39.3657C26.647 36.0675 26.0422 34.79 24.7163 34.8829C23.4136 34.9758 22.9949 36.3462 23.2508 39.6444C23.5066 42.9426 24.1347 44.2201 25.4374 44.1272ZM80.4515 28.2638C74.45 27.8921 70.6584 31.4226 70.2629 37.7867C69.8675 44.1509 73.2404 48.0994 79.335 48.4943C80.3585 48.564 81.3355 48.5407 82.2892 48.4246C83.336 48.2852 83.8477 47.5652 83.8477 46.3574L83.8943 44.0115C83.9175 42.5947 83.2662 42.4321 81.8472 42.6644C81.382 42.734 80.9168 42.7573 80.405 42.734C78.0323 42.5947 76.8925 41.0385 77.0553 38.2048C77.2182 35.3712 78.5208 33.9776 80.8703 34.1169C81.6379 34.1634 82.266 34.3027 82.8475 34.5582C83.9641 35.1157 84.4526 34.9299 84.6154 33.4898L84.848 31.2833C84.9876 30.1451 84.6386 29.309 83.5919 28.9141C82.6847 28.5657 81.5914 28.3335 80.4515 28.2638ZM13.062 33.0956L7.64205 33.9085C7.52574 33.9317 7.45596 34.0246 7.47922 34.1408L8.0375 37.8803C8.06076 37.9964 8.15381 38.0661 8.27012 38.0429L12.0153 37.4854C13.2714 37.2996 14.0623 37.8803 14.2484 39.1345L14.4577 40.5513C14.6438 41.8056 14.0623 42.5953 12.8061 42.7811L9.06102 43.3386C8.94471 43.3618 8.87492 43.4547 8.89818 43.5708L9.75887 49.3078C9.9217 50.3763 9.17732 51.375 8.10729 51.5376L5.26936 51.9557C4.19933 52.1183 3.19907 51.375 3.03624 50.3066L0.221578 31.5626C0.0587463 30.4942 0.803118 29.4954 1.87316 29.3328L12.2944 27.7766C13.3644 27.614 14.3647 28.3573 14.5275 29.4257L14.7369 30.8426C14.8764 31.9342 14.1553 32.933 13.062 33.0956ZM56.0027 30.1223V45.8004C56.0027 46.8921 56.8634 47.7747 57.9567 47.7515H60.8412C61.9112 47.7515 62.7952 46.8921 62.7952 45.8004V39.924C62.7952 36.44 64.377 34.3728 67.052 34.3728C67.5405 34.3728 67.9593 34.4425 68.4245 34.5354C69.2386 34.7212 69.7039 34.1406 69.7039 32.7702V29.8901C69.7039 28.6358 69.0526 27.8926 67.7732 27.8926C64.7724 27.8926 62.9115 29.3094 62.0043 32.0502C61.9577 32.1431 61.8879 32.1895 61.7949 32.1895L61.2599 32.1431C61.1668 32.1431 61.0738 32.0502 61.097 31.934C61.1901 31.214 61.3529 30.5869 61.5855 30.0294C62.0508 28.8216 61.6088 28.1713 60.1433 28.1713H57.9567C56.8867 28.1713 56.0027 29.0307 56.0027 30.1223ZM119.391 45.4051L111.319 44.1276C111.203 44.1044 111.087 44.1973 111.063 44.3135L110.901 45.4283C110.877 45.5213 110.947 45.6374 111.04 45.6606C111.98 45.9592 113.253 46.1598 114.59 46.3705L114.948 46.4271C116.251 46.6361 117.6 46.8452 118.879 46.9845C120.135 47.1471 120.647 47.8439 120.461 49.0749L120.322 50.0505C120.159 51.1421 119.577 51.8157 118.484 51.9783C116.856 52.2106 114.832 52.1176 113.18 51.8389C107.039 50.8634 104.48 47.1239 105.597 40.1791C106.574 34.0008 110.179 31.1207 115.53 31.9801C120.438 32.7698 122.764 36.5557 121.88 42.1534L121.578 43.8954C121.415 45.1264 120.624 45.6142 119.391 45.4051ZM111.459 40.481L116.39 41.2708C116.763 38.3906 116.204 37.3687 114.599 37.1132C112.971 36.8344 111.994 37.7403 111.459 40.481ZM53.4216 45.7772L52.8866 30.0992C52.84 29.0308 51.9328 28.1714 50.8861 28.2178L48.0016 28.3107C46.9316 28.3339 46.0709 29.2398 46.1174 30.3315L46.4431 39.808C46.5129 41.5035 45.815 42.5023 44.5821 42.5487C43.3493 42.5952 42.5816 41.6429 42.5351 39.9473L42.2094 30.4708C42.1862 29.4024 41.279 28.543 40.1857 28.5894L37.3012 28.6824C36.2312 28.7056 35.3705 29.6114 35.417 30.7031L35.7427 40.1796C35.9288 45.7772 38.1154 48.6109 42.0466 48.4715C44.9311 48.3786 46.7222 46.7295 47.4201 44.1281C47.4433 43.9888 47.5596 43.8959 47.6992 43.9191L48.1877 43.9656C48.3273 43.9888 48.4436 44.1282 48.4203 44.2675C48.3273 44.9179 48.1877 45.5218 48.0016 46.0792C47.5829 47.3102 48.0016 47.9373 49.4671 47.8909L51.5374 47.798C52.7935 47.7515 53.4681 47.0547 53.4216 45.7772Z" fill="#FF573E"/>
<path d="M93.8271 8.77532C92.2221 7.7998 90.7101 7.66044 89.3144 8.03207C88.6863 8.19466 88.0815 8.54306 87.593 8.98437C87.3371 9.21663 87.2208 9.33277 87.058 9.54181C86.7091 9.95989 86.4299 10.4244 86.1973 10.889C86.174 10.9354 86.1275 11.0515 86.081 11.1212C86.0345 11.2141 85.9879 11.2141 85.9182 11.1909C85.7553 11.1212 85.4994 11.0283 85.3599 10.9354C85.2901 10.889 85.2668 10.8193 85.3366 10.587C85.3599 10.5406 85.4064 10.4244 85.4297 10.378C85.639 9.91344 85.8019 9.58826 86.0345 8.98437C86.2671 8.38047 86.616 7.17268 86.4299 5.98811C85.9647 3.94416 84.1037 3.01509 82.1498 3.22413C79.0327 3.57253 76.2878 7.35849 78.0557 12.8865C79.6375 17.857 79.7073 17.9267 78.8699 21.8055C78.7303 22.4559 79.6142 22.8507 79.9166 22.5953C82.1498 20.8765 84.3131 20.319 86.4299 20.2726C88.8491 20.2261 93.3619 18.8557 94.6646 17.7176C97.6188 15.2091 96.9907 10.7031 93.8271 8.77532Z" fill="#FFCB03"/>
<path d="M103.83 7.01033C103.574 5.40769 102.062 4.33926 100.503 4.17667C99.5727 4.08376 98.712 4.33925 97.9211 4.78056C98.0374 4.15344 98.0374 3.52632 97.9444 2.8992C97.8281 2.20239 97.5024 1.52882 96.8976 1.15719C96.2463 0.739105 95.3856 0.739104 94.6412 0.901691C91.78 1.52881 90.4541 4.68766 90.2447 7.31228C90.0819 9.33301 90.361 11.3537 90.1749 13.3512C90.1517 13.6996 90.5006 13.9784 90.803 13.9784C90.8495 13.9784 90.9193 13.9784 90.9658 13.9551C90.9658 13.9551 90.9658 13.9551 90.9891 13.9551C92.757 13.5371 94.5947 13.4209 96.3858 13.0958C98.1305 12.7938 99.8983 12.2828 101.41 11.3537C102.899 10.4479 104.132 8.84525 103.83 7.01033ZM100.294 10.5408C98.9213 11.2376 97.4559 11.6557 95.9438 11.9112C94.4784 12.1667 92.9663 12.2828 91.5009 12.5615C91.5474 11.2608 91.4543 9.93691 91.4776 8.63621C91.4776 7.35874 91.5939 6.05804 92.1057 4.85024C92.5244 3.89795 93.1757 2.9921 94.1062 2.45788C94.8505 2.0398 96.2462 1.6914 96.6417 2.73661C96.8743 3.3405 96.8045 4.03731 96.6882 4.6412C96.5254 5.40769 96.2462 6.12772 95.8275 6.80129C95.3856 7.4981 96.4789 8.10199 96.9208 7.45164C97.642 6.38321 98.8283 5.40769 100.177 5.40769C101.271 5.40769 102.457 6.10449 102.62 7.26583C102.806 8.77557 101.48 9.93691 100.294 10.5408Z" fill="black"/>
</svg>
